<svg xmlns="http://www.w3.org/2000/svg" xmlns:xlink="http://www.w3.org/1999/xlink" width="199.915" height="28.644" viewBox="0 0 199.915 28.644">
  <defs fill="#000000">
    <clipPath id="clip-path" fill="#000000">
      <rect id="Rectangle_55" data-name="Rectangle 55" width="199.915" height="28.644" fill="#000000"/>
    </clipPath>
  </defs>
  <g id="Group_2218" data-name="Group 2218" transform="translate(0 0)">
    <path id="Path_1522" data-name="Path 1522" d="M2.778,0V14.013h8V10.925H6.413V0Z" transform="translate(-1.531 0)" fill="#000000"/>
    <g id="Group_2217" data-name="Group 2217" transform="translate(0 0)">
      <g id="Group_2216" data-name="Group 2216" transform="translate(0 0)" clip-path="url(#clip-path)">
        <path id="Path_1523" data-name="Path 1523" d="M32.751,0V8.3a2.833,2.833,0,0,0,.715,2.164,2.582,2.582,0,0,0,3.4.063,3.068,3.068,0,0,0,.819-2.542V0h3.635V8.047a5.689,5.689,0,0,1-1.576,4.538,6.05,6.05,0,0,1-4.622,1.744,6.258,6.258,0,0,1-4.643-1.68,6.537,6.537,0,0,1-1.366-4.6V0Z" transform="translate(-16.041 0)" fill="#000000"/>
        <path id="Path_1524" data-name="Path 1524" d="M71.138,6.534,66.641,0h4.5l2.08,3.635L75.382,0h4.475L75.3,6.534l5.295,7.48H76.18L73.2,9.454l-3.152,4.559H65.654Z" transform="translate(-36.17 0)" fill="#000000"/>
        <path id="Path_1525" data-name="Path 1525" d="M111.908,0V8.3a2.833,2.833,0,0,0,.715,2.164,2.582,2.582,0,0,0,3.4.063,3.068,3.068,0,0,0,.819-2.542V0h3.635V8.047a5.689,5.689,0,0,1-1.576,4.538,6.05,6.05,0,0,1-4.622,1.744,6.258,6.258,0,0,1-4.643-1.68,6.537,6.537,0,0,1-1.366-4.6V0Z" transform="translate(-59.649 0)" fill="#000000"/>
        <path id="Path_1526" data-name="Path 1526" d="M153.757,0a4.528,4.528,0,0,1,3.425,1.239,4.613,4.613,0,0,1,1.2,3.152,4.043,4.043,0,0,1-1.114,2.92,3.921,3.921,0,0,1-1.933.966l4.391,5.736h-4.517l-3.488-5.378v5.378h-3.634V0Zm-2.038,6.282h.693a2.734,2.734,0,0,0,1.765-.567,1.745,1.745,0,0,0,.462-1.177,1.652,1.652,0,0,0-.483-1.177,2.468,2.468,0,0,0-1.744-.546h-.693Z" transform="translate(-81.582 0)" fill="#000000"/>
        <path id="Path_1527" data-name="Path 1527" d="M182.388,7.29,177.325,0h4.349l2.647,3.824L186.863,0h4.412L186.044,7.29v6.723h-3.656Z" transform="translate(-97.69 0)" fill="#000000"/>
        <path id="Path_1528" data-name="Path 1528" d="M232.762,14.013,235.136,0h3.593l2.836,7.48,3-7.48H248.2l2.1,14.014h-3.635l-1.029-8.068-3.383,8.068h-1.45l-3.236-8.068-1.2,8.068Z" transform="translate(-128.231 0)" fill="#000000"/>
        <path id="Path_1529" data-name="Path 1529" d="M289.981,11.661H284.9l-.946,2.353h-3.845L285.485,0h3.97l5.274,14.014h-3.887Zm-.966-2.773-1.576-4.538L285.9,8.887Z" transform="translate(-154.313 0)" fill="#000000"/>
        <path id="Path_1530" data-name="Path 1530" d="M328.023,0a4.528,4.528,0,0,1,3.425,1.239,4.613,4.613,0,0,1,1.2,3.152,4.043,4.043,0,0,1-1.114,2.92,3.921,3.921,0,0,1-1.933.966l4.391,5.736h-4.517l-3.488-5.378v5.378h-3.634V0Zm-2.038,6.282h.693a2.734,2.734,0,0,0,1.765-.567,1.746,1.746,0,0,0,.462-1.177,1.652,1.652,0,0,0-.483-1.177,2.468,2.468,0,0,0-1.744-.546h-.693Z" transform="translate(-177.587 0)" fill="#000000"/>
        <path id="Path_1531" data-name="Path 1531" d="M361.4,5.778,365.854,0h4.5l-5.568,6.639,6.072,7.374h-4.706L361.4,7.941v6.072h-3.635V0H361.4Z" transform="translate(-197.096 0)" fill="#000000"/>
        <path id="Path_1532" data-name="Path 1532" d="M404.557,3.089h-4.328V5.421h4.1V8.509h-4.1v2.416h4.328v3.088h-7.963V0h7.963Z" transform="translate(-218.488 0)" fill="#000000"/>
        <path id="Path_1533" data-name="Path 1533" d="M430.393,3.089V14.014h-3.635V3.089h-2.983V0h9.6V3.089Z" transform="translate(-233.462 0)" fill="#000000"/>
        <rect id="Rectangle_53" data-name="Rectangle 53" width="37.124" height="1.001" transform="translate(0 24.561)" fill="#000000"/>
        <rect id="Rectangle_54" data-name="Rectangle 54" width="37.124" height="1.001" transform="translate(162.33 24.561)" fill="#000000"/>
        <path id="Path_1534" data-name="Path 1534" d="M104.348,49.386l1.579,4.485,1.874-4.79,1.777,4.79,1.749-4.485h.735l-2.512,6.3-1.758-4.79-1.884,4.79-2.3-6.3Z" transform="translate(-57.081 -27.039)" fill="#000000"/>
        <path id="Path_1535" data-name="Path 1535" d="M125.983,52.635a3.113,3.113,0,1,1,3.113,3.095,3.054,3.054,0,0,1-3.113-3.095m.682,0a2.431,2.431,0,1,0,2.431-2.467,2.441,2.441,0,0,0-2.431,2.467" transform="translate(-69.405 -27.292)" fill="#000000"/>
        <path id="Path_1536" data-name="Path 1536" d="M145.918,49.76a2.624,2.624,0,0,1,1.453.332,1.663,1.663,0,0,1-.852,2.978l1.9,2.673h-.807l-1.821-2.619h-.17v2.619h-.664V49.76Zm-.3,2.772h.422c.825,0,1.319-.395,1.319-1.094a.931.931,0,0,0-.476-.879,1.708,1.708,0,0,0-.861-.17h-.4Z" transform="translate(-79.859 -27.413)" fill="#000000"/>
        <path id="Path_1537" data-name="Path 1537" d="M158.046,49.76v5.355h1.65v.628h-2.314V49.76Z" transform="translate(-86.703 -27.413)" fill="#000000"/>
        <path id="Path_1538" data-name="Path 1538" d="M166.929,49.76h1.22a3.254,3.254,0,0,1,2.207.7,2.917,2.917,0,0,1,1.023,2.3,2.846,2.846,0,0,1-1.05,2.3,3,3,0,0,1-2.189.691h-1.211Zm.664,5.355h.583a2.555,2.555,0,0,0,1.713-.538,2.4,2.4,0,0,0-1.713-4.189h-.583Z" transform="translate(-91.963 -27.413)" fill="#000000"/>
        <path id="Path_1539" data-name="Path 1539" d="M182.117,49.281l.6.215-.906,2.027-.422-.17Z" transform="translate(-99.93 -27.149)" fill="#000000"/>
        <path id="Path_1540" data-name="Path 1540" d="M191.258,50.824a1.435,1.435,0,0,0-.35-.449,1.076,1.076,0,0,0-.673-.206.918.918,0,0,0-1,.924.627.627,0,0,0,.224.52,1.956,1.956,0,0,0,.628.377l.574.251a2.9,2.9,0,0,1,.924.565,1.44,1.44,0,0,1,.431,1.085,1.92,1.92,0,0,1-3.193,1.354,2.167,2.167,0,0,1-.556-1.059l.646-.179a1.414,1.414,0,0,0,.359.763,1.225,1.225,0,0,0,2.063-.852.891.891,0,0,0-.3-.7,2.592,2.592,0,0,0-.717-.413l-.538-.251a2.643,2.643,0,0,1-.8-.493,1.244,1.244,0,0,1-.413-.978,1.545,1.545,0,0,1,1.677-1.543,1.618,1.618,0,0,1,.96.269,1.806,1.806,0,0,1,.583.664Z" transform="translate(-103.716 -27.293)" fill="#000000"/>
        <path id="Path_1541" data-name="Path 1541" d="M209.85,49.76a2.222,2.222,0,0,1,1.372.377,1.487,1.487,0,0,1,.538,1.238,1.351,1.351,0,0,1-.592,1.175,1.5,1.5,0,0,1,1.139,1.507,1.654,1.654,0,0,1-.61,1.292,2.184,2.184,0,0,1-1.435.394h-1.489V49.76Zm-.413,2.629h.5c.349,0,1.175-.072,1.175-1,0-.987-.969-1-1.157-1h-.52Zm0,2.726h.763a1.655,1.655,0,0,0,1.05-.251,1.008,1.008,0,0,0,.395-.825.97.97,0,0,0-.512-.879,2.082,2.082,0,0,0-1.014-.18h-.682Z" transform="translate(-115.016 -27.413)" fill="#000000"/>
        <path id="Path_1542" data-name="Path 1542" d="M224.861,50.388h-2.44v1.776h2.368v.628h-2.368v2.323h2.44v.628h-3.1V49.76h3.1Z" transform="translate(-122.169 -27.413)" fill="#000000"/>
        <path id="Path_1543" data-name="Path 1543" d="M236.058,50.824a1.434,1.434,0,0,0-.35-.449,1.076,1.076,0,0,0-.673-.206.918.918,0,0,0-1,.924.627.627,0,0,0,.224.52,1.956,1.956,0,0,0,.628.377l.574.251a2.9,2.9,0,0,1,.924.565,1.44,1.44,0,0,1,.431,1.085,1.92,1.92,0,0,1-3.193,1.354,2.167,2.167,0,0,1-.556-1.059l.646-.179a1.414,1.414,0,0,0,.359.763,1.225,1.225,0,0,0,2.063-.852.891.891,0,0,0-.3-.7,2.592,2.592,0,0,0-.717-.413l-.538-.251a2.643,2.643,0,0,1-.8-.493,1.243,1.243,0,0,1-.413-.978,1.545,1.545,0,0,1,1.677-1.543,1.619,1.619,0,0,1,.96.269,1.807,1.807,0,0,1,.583.664Z" transform="translate(-128.396 -27.293)" fill="#000000"/>
        <path id="Path_1544" data-name="Path 1544" d="M246.365,50.388v5.355H245.7V50.388h-1.453V49.76h3.57v.628Z" transform="translate(-134.559 -27.413)" fill="#000000"/>
        <path id="Path_1545" data-name="Path 1545" d="M264.718,49.76a2.222,2.222,0,0,1,1.372.377,1.487,1.487,0,0,1,.538,1.238,1.351,1.351,0,0,1-.592,1.175,1.5,1.5,0,0,1,1.139,1.507,1.654,1.654,0,0,1-.61,1.292,2.184,2.184,0,0,1-1.435.394h-1.489V49.76Zm-.413,2.629h.5c.349,0,1.175-.072,1.175-1,0-.987-.969-1-1.157-1h-.521Zm0,2.726h.763a1.655,1.655,0,0,0,1.05-.251,1.009,1.009,0,0,0,.395-.825A.97.97,0,0,0,266,53.16a2.082,2.082,0,0,0-1.014-.18h-.682Z" transform="translate(-145.243 -27.413)" fill="#000000"/>
        <path id="Path_1546" data-name="Path 1546" d="M277.585,49.76a2.624,2.624,0,0,1,1.453.332,1.663,1.663,0,0,1-.852,2.978l1.9,2.673h-.807l-1.821-2.619h-.17v2.619h-.664V49.76Zm-.3,2.772h.422c.825,0,1.319-.395,1.319-1.094a.932.932,0,0,0-.476-.879,1.708,1.708,0,0,0-.861-.17h-.4Z" transform="translate(-152.396 -27.413)" fill="#000000"/>
        <path id="Path_1547" data-name="Path 1547" d="M291.492,53.7h-2.547l-.718,1.686h-.736l2.754-6.27,2.682,6.27h-.736Zm-.26-.628-1-2.395L289.2,53.077Z" transform="translate(-158.382 -27.061)" fill="#000000"/>
        <path id="Path_1548" data-name="Path 1548" d="M303.87,55.435V49.2l4.664,4.889V49.452h.664V55.7l-4.664-4.889v4.619Z" transform="translate(-167.405 -27.105)" fill="#000000"/>
        <path id="Path_1549" data-name="Path 1549" d="M321.566,49.76h1.22a3.254,3.254,0,0,1,2.207.7,2.917,2.917,0,0,1,1.023,2.3,2.846,2.846,0,0,1-1.049,2.3,3,3,0,0,1-2.189.691h-1.211Zm.664,5.355h.583a2.555,2.555,0,0,0,1.713-.538,2.4,2.4,0,0,0-1.713-4.189h-.583Z" transform="translate(-177.154 -27.413)" fill="#000000"/>
        <path id="Path_1550" data-name="Path 1550" d="M338.864,50.824a1.436,1.436,0,0,0-.35-.449,1.076,1.076,0,0,0-.673-.206.918.918,0,0,0-1,.924.627.627,0,0,0,.224.52,1.957,1.957,0,0,0,.628.377l.574.251a2.9,2.9,0,0,1,.924.565,1.44,1.44,0,0,1,.431,1.085,1.92,1.92,0,0,1-3.193,1.354,2.167,2.167,0,0,1-.556-1.059l.646-.179a1.414,1.414,0,0,0,.359.763,1.225,1.225,0,0,0,2.063-.852.891.891,0,0,0-.3-.7,2.594,2.594,0,0,0-.717-.413l-.538-.251a2.643,2.643,0,0,1-.8-.493,1.244,1.244,0,0,1-.413-.978,1.545,1.545,0,0,1,1.677-1.543,1.619,1.619,0,0,1,.96.269,1.807,1.807,0,0,1,.583.664Z" transform="translate(-185.033 -27.293)" fill="#000000"/>
      </g>
    </g>
  </g>
</svg>